<svg xmlns="http://www.w3.org/2000/svg" version="1.1" xmlns:xlink="http://www.w3.org/1999/xlink" xmlns:svgjs="http://svgjs.dev/svgjs" width="1500" height="295" viewBox="0 0 1500 295"><g transform="matrix(1,0,0,1,-0.9090909090909918,-1.166403586524126)"><svg viewBox="0 0 396 78" data-background-color="#040046" preserveAspectRatio="xMidYMid meet" height="295" width="1500" xmlns="http://www.w3.org/2000/svg" xmlns:xlink="http://www.w3.org/1999/xlink"><g id="tight-bounds" transform="matrix(1,0,0,1,0.2400000000000091,0.3084050160979075)"><svg viewBox="0 0 395.52 77.38318996780419" height="77.38318996780419" width="395.52"><g><svg viewBox="0 0 520.628173292471 101.86050980097636" height="77.38318996780419" width="395.52"><g transform="matrix(1,0,0,1,0,1.793491851295542)"><svg viewBox="0 0 395.52 98.27352609838528" height="98.27352609838528" width="395.52"><g id="textblocktransform"><svg viewBox="0 0 395.52 98.27352609838528" height="98.27352609838528" width="395.52" id="textblock"><g><svg viewBox="0 0 395.52 98.27352609838528" height="98.27352609838528" width="395.52"><g transform="matrix(1,0,0,1,0,0)"><svg width="395.52" viewBox="0.15 -38.35 195.01999999999998 48.46" height="98.27352609838528" data-palette-color="url(#936dff18-120b-484c-996e-2acf6fd0c71a)"></svg></g></svg></g></svg></g></svg></g><g transform="matrix(1,0,0,1,418.7200209472024,0)"><svg viewBox="0 0 101.9081523452687 101.86050980097636" height="101.86050980097636" width="101.9081523452687"><g><svg xmlns="http://www.w3.org/2000/svg" xmlns:xlink="http://www.w3.org/1999/xlink" version="1.1" x="0" y="0" viewBox="0.7607695154586737 0.7749999999999999 30.439230484541326 30.425" enable-background="new 0 0 32 32" xml:space="preserve" height="101.86050980097636" width="101.9081523452687" class="icon-icon-0" data-fill-palette-color="accent" id="icon-0"></svg></g></svg></g></svg></g><defs></defs><mask id="0ed1eb96-c643-48fb-bf84-f427505fb7af"><g id="SvgjsG1095"><svg viewBox="0 0 395.52 77.38318996780419" height="77.38318996780419" width="395.52"><g><svg viewBox="0 0 520.628173292471 101.86050980097636" height="77.38318996780419" width="395.52"><g transform="matrix(1,0,0,1,0,1.793491851295542)"><svg viewBox="0 0 395.52 98.27352609838528" height="98.27352609838528" width="395.52"><g id="SvgjsG1094"><svg viewBox="0 0 395.52 98.27352609838528" height="98.27352609838528" width="395.52" id="SvgjsSvg1093"><g><svg viewBox="0 0 395.52 98.27352609838528" height="98.27352609838528" width="395.52"><g transform="matrix(1,0,0,1,0,0)"><svg width="395.52" viewBox="0.15 -38.35 195.01999999999998 48.46" height="98.27352609838528" data-palette-color="url(#936dff18-120b-484c-996e-2acf6fd0c71a)"><path d="M16.38 0.02L11.62 0.02 11.62-31.98 0.15-31.98 0.15-35.55 27.91-35.55 27.91-31.98 16.38-31.98 16.38 0.02ZM41.82 0.49L41.82 0.49Q37.99 0.49 35.31-1.23 32.64-2.95 31.25-6.04 29.86-9.13 29.86-13.23L29.86-13.23Q29.86-17.43 31.22-20.52 32.59-23.61 35.26-25.31 37.94-27 41.82-27L41.82-27Q45.7-27 48.36-25.31 51.02-23.61 52.39-20.52 53.76-17.43 53.76-13.23L53.76-13.23Q53.76-9.13 52.37-6.04 50.97-2.95 48.31-1.23 45.65 0.49 41.82 0.49ZM41.82-2.81L41.82-2.81Q44.41-2.81 46.03-4.16 47.65-5.52 48.42-7.86 49.19-10.21 49.19-13.21L49.19-13.21Q49.19-16.28 48.42-18.64 47.65-21 46.02-22.34 44.38-23.68 41.82-23.68L41.82-23.68Q37.96-23.68 36.19-20.75 34.42-17.82 34.42-13.21L34.42-13.21Q34.42-10.21 35.19-7.86 35.96-5.52 37.6-4.16 39.23-2.81 41.82-2.81ZM69.06 0.27L69.06 0.27Q67.35 0.27 65.49 0.13 63.62 0 61.59-0.24L61.59-0.24 61.59-35.01Q64.2-35.35 66.51-35.52 68.82-35.69 70.82-35.69L70.82-35.69Q76.51-35.69 80.16-34.45 83.81-33.2 85.85-30.88 87.89-28.56 88.7-25.34 89.52-22.12 89.52-18.19L89.52-18.19Q89.52-14.09 88.47-10.71 87.42-7.32 85.05-4.86 82.69-2.39 78.75-1.06 74.82 0.27 69.06 0.27ZM70.31-3.08L70.31-3.08Q74.68-3.08 77.51-4.19 80.34-5.3 81.94-7.31 83.54-9.33 84.17-12.06 84.81-14.79 84.81-18.07L84.81-18.07Q84.81-21.34 84.24-23.97 83.66-26.61 82.18-28.48 80.71-30.35 78.06-31.35 75.41-32.35 71.24-32.35L71.24-32.35Q70.11-32.35 68.9-32.28 67.7-32.2 66.33-32.06L66.33-32.06 66.33-3.3Q67.4-3.2 68.4-3.14 69.4-3.08 70.31-3.08ZM102.17 0L97.72 0 97.72-26.42 102.17-26.42 102.17 0ZM99.94-32.47L99.94-32.47Q98.45-32.47 97.65-33.25 96.84-34.03 96.84-35.45L96.84-35.45Q96.84-36.82 97.65-37.59 98.45-38.35 99.94-38.35L99.94-38.35Q101.43-38.35 102.24-37.59 103.04-36.82 103.04-35.45L103.04-35.45Q103.04-34.03 102.24-33.25 101.43-32.47 99.94-32.47ZM118.45 0.49L118.45 0.49Q115.27 0.49 112.55-0.57 109.83-1.64 108.19-3.69L108.19-3.69 110.51-5.93 110.85-5.93Q112.44-4.1 114.52-3.42 116.59-2.73 118.45-2.73L118.45-2.73Q120.99-2.73 122.38-3.91 123.77-5.08 123.77-7.5L123.77-7.5Q123.77-8.35 123.45-9.05 123.13-9.74 122.16-10.36 121.18-10.99 119.16-11.62L119.16-11.62 116.18-12.55Q112.98-13.55 111.44-14.65 109.9-15.75 109.43-17.04 108.95-18.33 108.95-19.9L108.95-19.9Q108.95-23.19 111.53-25.1 114.1-27 118.52-27L118.52-27Q120.67-27 122.35-26.5 124.04-26 125.28-25.13 126.53-24.27 127.31-23.14L127.31-23.14 124.89-21.17 124.65-21.17Q123.74-22.24 122.21-22.95 120.67-23.66 118.54-23.66L118.54-23.66Q116.69-23.66 115.54-23.21 114.39-22.75 113.86-21.9 113.32-21.04 113.32-19.87L113.32-19.87Q113.32-18.53 114.11-17.72 114.91-16.92 117.62-16.06L117.62-16.06 120.55-15.14Q123.72-14.11 125.27-12.94 126.82-11.77 127.32-10.46 127.82-9.16 127.82-7.67L127.82-7.67Q127.82-4.79 126.55-2.99 125.28-1.2 123.16-0.35 121.03 0.49 118.45 0.49ZM144.42 0.2L144.42 0.2Q141.61 0.2 139.89-0.23 138.17-0.66 137.28-1.61 136.39-2.56 136.07-4.17 135.75-5.79 135.75-8.15L135.75-8.15 135.75-23.71 131.58-23.71 131.7-26.17 135.88-26.39 136.51-33.54 140.2-33.81 140.2-26.42 147.23-26.42 147.23-23.71 140.2-23.71 140.2-8.13Q140.2-6.05 140.43-4.98 140.66-3.91 141.56-3.5 142.47-3.1 144.42-3.03L144.42-3.03Q145.08-3 145.74-2.98 146.4-2.95 147.06-2.93L147.06-2.93 146.86 0.2Q146.25 0.2 145.64 0.2 145.03 0.2 144.42 0.2ZM158.24 0L153.82 0 153.82-26.42 157.41-26.42 157.85-20.92Q159.21-24.19 161.22-25.46 163.22-26.73 165.46-26.73L165.46-26.73Q166-26.73 166.46-26.71 166.93-26.68 167.39-26.61L167.39-26.61 167.05-23.1Q166.81-23.1 166.56-23.11 166.32-23.12 166.05-23.12L166.05-23.12Q163.41-23.12 161.68-22.02 159.95-20.92 159.09-19.08 158.24-17.24 158.24-14.99L158.24-14.99 158.24 0ZM195.17-26.42L180.57 10.11 176.76 9.13 180.67-1.07 169.68-26.42 174.32-26.42 182.87-5.93 190.9-26.42 195.17-26.42Z" opacity="1" transform="matrix(1,0,0,1,0,0)" fill="white" class="wordmark-text-0" id="SvgjsPath1092"></path></svg></g></svg></g></svg></g></svg></g><g transform="matrix(1,0,0,1,418.7200209472024,0)"><svg viewBox="0 0 101.9081523452687 101.86050980097636" height="101.86050980097636" width="101.9081523452687"><g><svg xmlns="http://www.w3.org/2000/svg" xmlns:xlink="http://www.w3.org/1999/xlink" version="1.1" x="0" y="0" viewBox="0.7607695154586737 0.7749999999999999 30.439230484541326 30.425" enable-background="new 0 0 32 32" xml:space="preserve" height="101.86050980097636" width="101.9081523452687" class="icon-icon-0" data-fill-palette-color="accent" id="SvgjsSvg1091"><g fill="black"><g fill="black"><path fill="black" d="M1.5 31.2C1.3 31.2 1.1 31.1 1 31 0.8 30.8 0.7 30.6 0.8 30.3L4.5 11.2C4.6 10.9 4.8 10.6 5.1 10.6L14.7 9.3C14.9 9.3 15.2 9.3 15.3 9.5L22.5 16.7C22.7 16.9 22.7 17.1 22.7 17.3L21.4 26.9C21.4 27.2 21.1 27.5 20.8 27.5L1.6 31.2zM5.8 12.1L2.4 29.6 19.9 26.2 21.1 17.5 14.4 10.8z"></path></g><g fill="black"><rect x="5.2" y="19.8" transform="matrix(-0.7071 -0.7071 0.7071 -0.7071 -8.3465 48.7211)" fill="black" width="1.5" height="12.6"></rect></g><g fill="black"><path fill="black" d="M12 23.1C11.2 23.1 10.4 22.8 9.8 22.2S8.9 20.9 8.9 20C8.9 19.2 9.2 18.4 9.8 17.8 11 16.6 13 16.6 14.1 17.8 15.3 19 15.3 20.9 14.1 22.1 13.6 22.8 12.8 23.1 12 23.1M12 18.4C11.6 18.4 11.2 18.6 10.9 18.9S10.4 19.6 10.4 20 10.6 20.8 10.9 21.1C11.5 21.7 12.5 21.7 13.1 21.1S13.7 19.5 13.1 18.9C12.8 18.6 12.4 18.4 12 18.4"></path></g><g fill="black"><path fill="black" d="M23.8 18.7C22.9 18.7 22 18.3 21.4 17.7L14.3 10.6C13 9.3 13 7.1 14.3 5.8L19.1 1C19.4 0.7 19.9 0.7 20.2 1L31 11.8C31.1 11.9 31.2 12.1 31.2 12.3S31.1 12.7 31 12.8L26.1 17.7C25.5 18.4 24.7 18.7 23.8 18.7M19.7 2.6L15.4 6.9C14.7 7.6 14.7 8.9 15.4 9.6L22.5 16.7C23.2 17.4 24.5 17.4 25.2 16.7L29.5 12.4z"></path></g></g></svg></g></svg></g></svg></g><defs><mask></mask></defs></svg><rect width="395.52" height="77.38318996780419" fill="black" stroke="none" visibility="hidden"></rect></g></mask><linearGradient x1="0" x2="1" y1="0.578" y2="0.595" id="936dff18-120b-484c-996e-2acf6fd0c71a"><stop stop-color="#6ee2f5" offset="0"></stop><stop stop-color="#6454f0" offset="1"></stop></linearGradient><rect width="395.52" height="77.38318996780419" fill="url(#936dff18-120b-484c-996e-2acf6fd0c71a)" mask="url(#0ed1eb96-c643-48fb-bf84-f427505fb7af)" data-fill-palette-color="primary"></rect><mask id="474a4602-6560-4e82-800f-d7678f88d39f"><g id="SvgjsG1114"><svg viewBox="0 0 395.52 77.38318996780419" height="77.38318996780419" width="395.52"><g><svg viewBox="0 0 520.628173292471 101.86050980097636" height="77.38318996780419" width="395.52"><g transform="matrix(1,0,0,1,0,1.793491851295542)"><svg viewBox="0 0 395.52 98.27352609838528" height="98.27352609838528" width="395.52"><g id="SvgjsG1113"><svg viewBox="0 0 395.52 98.27352609838528" height="98.27352609838528" width="395.52" id="SvgjsSvg1112"><g><svg viewBox="0 0 395.52 98.27352609838528" height="98.27352609838528" width="395.52"><g transform="matrix(1,0,0,1,0,0)"><svg width="395.52" viewBox="0.15 -38.35 195.01999999999998 48.46" height="98.27352609838528" data-palette-color="url(#936dff18-120b-484c-996e-2acf6fd0c71a)"></svg></g></svg></g></svg></g></svg></g><g transform="matrix(1,0,0,1,418.7200209472024,0)"><svg viewBox="0 0 101.9081523452687 101.86050980097636" height="101.86050980097636" width="101.9081523452687"><g><svg xmlns="http://www.w3.org/2000/svg" xmlns:xlink="http://www.w3.org/1999/xlink" version="1.1" x="0" y="0" viewBox="0.7607695154586737 0.7749999999999999 30.439230484541326 30.425" enable-background="new 0 0 32 32" xml:space="preserve" height="101.86050980097636" width="101.9081523452687" class="icon-icon-0" data-fill-palette-color="accent" id="SvgjsSvg1111"><g fill="white"><g fill="white"><path fill="white" d="M1.5 31.2C1.3 31.2 1.1 31.1 1 31 0.8 30.8 0.7 30.6 0.8 30.3L4.5 11.2C4.6 10.9 4.8 10.6 5.1 10.6L14.7 9.3C14.9 9.3 15.2 9.3 15.3 9.5L22.5 16.7C22.7 16.9 22.7 17.1 22.7 17.3L21.4 26.9C21.4 27.2 21.1 27.5 20.8 27.5L1.6 31.2zM5.8 12.1L2.4 29.6 19.9 26.2 21.1 17.5 14.4 10.8z"></path></g><g fill="white"><rect x="5.2" y="19.8" transform="matrix(-0.7071 -0.7071 0.7071 -0.7071 -8.3465 48.7211)" fill="white" width="1.5" height="12.6"></rect></g><g fill="white"><path fill="white" d="M12 23.1C11.2 23.1 10.4 22.8 9.8 22.2S8.9 20.9 8.9 20C8.9 19.2 9.2 18.4 9.8 17.8 11 16.6 13 16.6 14.1 17.8 15.3 19 15.3 20.9 14.1 22.1 13.6 22.8 12.8 23.1 12 23.1M12 18.4C11.6 18.4 11.2 18.6 10.9 18.9S10.4 19.6 10.4 20 10.6 20.8 10.9 21.1C11.5 21.7 12.5 21.7 13.1 21.1S13.7 19.5 13.1 18.9C12.8 18.6 12.4 18.4 12 18.4"></path></g><g fill="white"><path fill="white" d="M23.8 18.7C22.9 18.7 22 18.3 21.4 17.7L14.3 10.6C13 9.3 13 7.1 14.3 5.8L19.1 1C19.4 0.7 19.9 0.7 20.2 1L31 11.8C31.1 11.9 31.2 12.1 31.2 12.3S31.1 12.7 31 12.8L26.1 17.7C25.5 18.4 24.7 18.7 23.8 18.7M19.7 2.6L15.4 6.9C14.7 7.6 14.7 8.9 15.4 9.6L22.5 16.7C23.2 17.4 24.5 17.4 25.2 16.7L29.5 12.4z"></path></g></g></svg></g></svg></g></svg></g><defs><mask></mask></defs><mask><g id="SvgjsG1110"><svg viewBox="0 0 395.52 77.38318996780419" height="77.38318996780419" width="395.52"><g><svg viewBox="0 0 520.628173292471 101.86050980097636" height="77.38318996780419" width="395.52"><g transform="matrix(1,0,0,1,0,1.793491851295542)"><svg viewBox="0 0 395.52 98.27352609838528" height="98.27352609838528" width="395.52"><g id="SvgjsG1109"><svg viewBox="0 0 395.52 98.27352609838528" height="98.27352609838528" width="395.52" id="SvgjsSvg1108"><g><svg viewBox="0 0 395.52 98.27352609838528" height="98.27352609838528" width="395.52"><g transform="matrix(1,0,0,1,0,0)"><svg width="395.52" viewBox="0.15 -38.35 195.01999999999998 48.46" height="98.27352609838528" data-palette-color="url(#936dff18-120b-484c-996e-2acf6fd0c71a)"><path d="M16.38 0.02L11.62 0.02 11.62-31.98 0.15-31.98 0.15-35.55 27.91-35.55 27.91-31.98 16.38-31.98 16.38 0.02ZM41.82 0.49L41.82 0.49Q37.99 0.49 35.31-1.23 32.64-2.95 31.25-6.04 29.86-9.13 29.86-13.23L29.86-13.23Q29.86-17.43 31.22-20.52 32.59-23.61 35.26-25.31 37.94-27 41.82-27L41.82-27Q45.7-27 48.36-25.31 51.02-23.61 52.39-20.52 53.76-17.43 53.76-13.23L53.76-13.23Q53.76-9.13 52.37-6.04 50.97-2.95 48.31-1.23 45.65 0.49 41.82 0.49ZM41.82-2.81L41.82-2.81Q44.41-2.81 46.03-4.16 47.65-5.52 48.42-7.86 49.19-10.21 49.19-13.21L49.19-13.21Q49.19-16.28 48.42-18.64 47.65-21 46.02-22.34 44.38-23.68 41.82-23.68L41.82-23.68Q37.96-23.68 36.19-20.75 34.42-17.82 34.42-13.21L34.42-13.21Q34.42-10.21 35.19-7.86 35.96-5.52 37.6-4.16 39.23-2.81 41.82-2.81ZM69.06 0.27L69.06 0.27Q67.35 0.27 65.49 0.13 63.62 0 61.59-0.24L61.59-0.24 61.59-35.01Q64.2-35.35 66.51-35.52 68.82-35.69 70.82-35.69L70.82-35.69Q76.51-35.69 80.16-34.45 83.81-33.2 85.85-30.88 87.89-28.56 88.7-25.34 89.52-22.12 89.52-18.19L89.52-18.19Q89.52-14.09 88.47-10.71 87.42-7.32 85.05-4.86 82.69-2.39 78.75-1.06 74.82 0.27 69.06 0.27ZM70.31-3.08L70.31-3.08Q74.68-3.08 77.51-4.19 80.34-5.3 81.94-7.31 83.54-9.33 84.17-12.06 84.81-14.79 84.81-18.07L84.81-18.07Q84.81-21.34 84.24-23.97 83.66-26.61 82.18-28.48 80.71-30.35 78.06-31.35 75.41-32.35 71.24-32.35L71.24-32.35Q70.11-32.35 68.9-32.28 67.7-32.2 66.33-32.06L66.33-32.06 66.33-3.3Q67.4-3.2 68.4-3.14 69.4-3.08 70.31-3.08ZM102.17 0L97.72 0 97.72-26.42 102.17-26.42 102.17 0ZM99.94-32.47L99.94-32.47Q98.45-32.47 97.65-33.25 96.84-34.03 96.84-35.45L96.84-35.45Q96.84-36.82 97.65-37.59 98.45-38.35 99.94-38.35L99.94-38.35Q101.43-38.35 102.24-37.59 103.04-36.82 103.04-35.45L103.04-35.45Q103.04-34.03 102.24-33.25 101.43-32.47 99.94-32.47ZM118.45 0.49L118.45 0.49Q115.27 0.49 112.55-0.57 109.83-1.64 108.19-3.69L108.19-3.69 110.51-5.93 110.85-5.93Q112.44-4.1 114.52-3.42 116.59-2.73 118.45-2.73L118.45-2.73Q120.99-2.73 122.38-3.91 123.77-5.08 123.77-7.5L123.77-7.5Q123.77-8.35 123.45-9.05 123.13-9.74 122.16-10.36 121.18-10.99 119.16-11.62L119.16-11.62 116.18-12.55Q112.98-13.55 111.44-14.65 109.9-15.75 109.43-17.04 108.95-18.33 108.95-19.9L108.95-19.9Q108.95-23.19 111.53-25.1 114.1-27 118.52-27L118.52-27Q120.67-27 122.35-26.5 124.04-26 125.28-25.13 126.53-24.27 127.31-23.14L127.31-23.14 124.89-21.17 124.65-21.17Q123.74-22.24 122.21-22.95 120.67-23.66 118.54-23.66L118.54-23.66Q116.69-23.66 115.54-23.21 114.39-22.75 113.86-21.9 113.32-21.04 113.32-19.87L113.32-19.87Q113.32-18.53 114.11-17.72 114.91-16.92 117.62-16.06L117.62-16.06 120.55-15.14Q123.72-14.11 125.27-12.94 126.82-11.77 127.32-10.46 127.82-9.16 127.82-7.67L127.82-7.67Q127.82-4.79 126.55-2.99 125.28-1.2 123.16-0.35 121.03 0.49 118.45 0.49ZM144.42 0.2L144.42 0.2Q141.61 0.2 139.89-0.23 138.17-0.66 137.28-1.61 136.39-2.56 136.07-4.17 135.75-5.79 135.75-8.15L135.75-8.15 135.75-23.71 131.58-23.71 131.7-26.17 135.88-26.39 136.51-33.54 140.2-33.81 140.2-26.42 147.23-26.42 147.23-23.71 140.2-23.71 140.2-8.13Q140.2-6.05 140.43-4.98 140.66-3.91 141.56-3.5 142.47-3.1 144.42-3.03L144.42-3.03Q145.08-3 145.74-2.98 146.4-2.95 147.06-2.93L147.06-2.93 146.86 0.2Q146.25 0.2 145.64 0.2 145.03 0.2 144.42 0.2ZM158.24 0L153.82 0 153.82-26.42 157.41-26.42 157.85-20.92Q159.21-24.19 161.22-25.46 163.22-26.73 165.46-26.73L165.46-26.73Q166-26.73 166.46-26.71 166.93-26.68 167.39-26.61L167.39-26.61 167.05-23.1Q166.81-23.1 166.56-23.11 166.32-23.12 166.05-23.12L166.05-23.12Q163.41-23.12 161.68-22.02 159.95-20.92 159.09-19.08 158.24-17.24 158.24-14.99L158.24-14.99 158.24 0ZM195.17-26.42L180.57 10.11 176.76 9.13 180.67-1.07 169.68-26.42 174.32-26.42 182.87-5.93 190.9-26.42 195.17-26.42Z" opacity="1" transform="matrix(1,0,0,1,0,0)" fill="black" class="wordmark-text-0" id="SvgjsPath1107"></path></svg></g></svg></g></svg></g></svg></g><g transform="matrix(1,0,0,1,418.7200209472024,0)"><svg viewBox="0 0 101.9081523452687 101.86050980097636" height="101.86050980097636" width="101.9081523452687"><g><svg xmlns="http://www.w3.org/2000/svg" xmlns:xlink="http://www.w3.org/1999/xlink" version="1.1" x="0" y="0" viewBox="0.7607695154586737 0.7749999999999999 30.439230484541326 30.425" enable-background="new 0 0 32 32" xml:space="preserve" height="101.86050980097636" width="101.9081523452687" class="icon-icon-0" data-fill-palette-color="accent" id="SvgjsSvg1106"><g fill="black"><g fill="black"><path fill="black" d="M1.5 31.2C1.3 31.2 1.1 31.1 1 31 0.8 30.8 0.7 30.6 0.8 30.3L4.5 11.2C4.6 10.9 4.8 10.6 5.1 10.6L14.7 9.3C14.9 9.3 15.2 9.3 15.3 9.5L22.5 16.7C22.7 16.9 22.7 17.1 22.7 17.3L21.4 26.9C21.4 27.2 21.1 27.5 20.8 27.5L1.6 31.2zM5.8 12.1L2.4 29.6 19.9 26.2 21.1 17.5 14.4 10.8z"></path></g><g fill="black"><rect x="5.2" y="19.8" transform="matrix(-0.7071 -0.7071 0.7071 -0.7071 -8.3465 48.7211)" fill="black" width="1.5" height="12.6"></rect></g><g fill="black"><path fill="black" d="M12 23.1C11.2 23.1 10.4 22.8 9.8 22.2S8.9 20.9 8.9 20C8.9 19.2 9.2 18.4 9.8 17.8 11 16.6 13 16.6 14.1 17.8 15.3 19 15.3 20.9 14.1 22.1 13.6 22.8 12.8 23.1 12 23.1M12 18.4C11.6 18.4 11.2 18.6 10.9 18.9S10.4 19.6 10.4 20 10.6 20.8 10.9 21.1C11.5 21.7 12.5 21.7 13.1 21.1S13.7 19.5 13.1 18.9C12.8 18.6 12.4 18.4 12 18.4"></path></g><g fill="black"><path fill="black" d="M23.8 18.7C22.9 18.7 22 18.3 21.4 17.7L14.3 10.6C13 9.3 13 7.1 14.3 5.8L19.1 1C19.4 0.7 19.9 0.7 20.2 1L31 11.8C31.1 11.9 31.2 12.1 31.2 12.3S31.1 12.7 31 12.8L26.1 17.7C25.5 18.4 24.7 18.7 23.8 18.7M19.7 2.6L15.4 6.9C14.7 7.6 14.7 8.9 15.4 9.6L22.5 16.7C23.2 17.4 24.5 17.4 25.2 16.7L29.5 12.4z"></path></g></g></svg></g></svg></g></svg></g><defs><mask></mask></defs></svg><rect width="395.52" height="77.38318996780419" fill="black" stroke="none" visibility="hidden"></rect></g></mask></svg><rect width="395.52" height="77.38318996780419" fill="black" stroke="none" visibility="hidden"></rect></g></mask><linearGradient x1="0" x2="1" y1="0.578" y2="0.595" id="8c4f2996-8316-42c4-aad1-eb058a3a4860"><stop stop-color="#6ee2f5" offset="0"></stop><stop stop-color="#6454f0" offset="1"></stop></linearGradient><rect width="395.52" height="77.38318996780419" fill="url(#8c4f2996-8316-42c4-aad1-eb058a3a4860)" mask="url(#474a4602-6560-4e82-800f-d7678f88d39f)" data-fill-palette-color="accent"></rect></svg><rect width="395.52" height="77.38318996780419" fill="none" stroke="none" visibility="hidden"></rect></g></svg></g></svg>